<?xml version="1.0" standalone="no"?><!DOCTYPE svg PUBLIC "-//W3C//DTD SVG 1.1//EN" "http://www.w3.org/Graphics/SVG/1.1/DTD/svg11.dtd"><svg t="1736242451195" class="icon" viewBox="0 0 1024 1024" version="1.1" xmlns="http://www.w3.org/2000/svg" p-id="8373" xmlns:xlink="http://www.w3.org/1999/xlink" width="200" height="200"><path d="M1020.16 411.534222c0.369778-1.223111 1.024-2.304 1.223111-3.584 0.085333-0.597333-0.142222-1.194667-0.113778-1.792a27.534222 27.534222 0 0 0-0.312889-5.916444c-0.227556-1.763556-0.398222-3.470222-0.910222-5.12-0.568889-1.649778-1.422222-3.100444-2.247111-4.636445a27.790222 27.790222 0 0 0-3.214222-5.006222c-0.398222-0.455111-0.540444-1.052444-0.967111-1.507555-0.796444-0.853333-1.877333-1.194667-2.787556-1.905778-1.536-1.251556-3.015111-2.360889-4.807111-3.299556s-3.584-1.450667-5.489778-1.962666c-1.109333-0.312889-2.019556-0.967111-3.185777-1.137778l-317.781334-46.193778-142.08-287.886222c-0.540444-1.080889-1.450667-1.735111-2.076444-2.702222a29.297778 29.297778 0 0 0-3.555556-4.608 28.643556 28.643556 0 0 0-4.551111-3.527112c-0.967111-0.625778-1.649778-1.592889-2.730667-2.104888-0.568889-0.284444-1.194667-0.227556-1.792-0.483556a25.429333 25.429333 0 0 0-5.603555-1.479111C515.413333 26.368 513.763556 25.998222 512 25.998222s-3.441778 0.369778-5.205333 0.711111a29.297778 29.297778 0 0 0-5.632 1.479111c-0.597333 0.227556-1.194667 0.199111-1.792 0.483556-1.080889 0.540444-1.735111 1.450667-2.702223 2.076444a27.136 27.136 0 0 0-4.579555 3.555556 28.871111 28.871111 0 0 0-3.527111 4.579556c-0.625778 0.967111-1.564444 1.649778-2.104889 2.702222l-142.08 287.914666-317.724445 46.193778c-1.194667 0.170667-2.104889 0.853333-3.214222 1.166222a28.728889 28.728889 0 0 0-5.432889 1.934223 28.046222 28.046222 0 0 0-4.807111 3.271111c-0.910222 0.711111-1.991111 1.080889-2.816 1.905778-0.455111 0.455111-0.597333 1.052444-0.995555 1.536a28.586667 28.586667 0 0 0-3.185778 4.920888c-0.853333 1.564444-1.735111 3.043556-2.247111 4.693334-0.568889 1.649778-0.711111 3.384889-0.938667 5.148444a26.652444 26.652444 0 0 0-0.312889 5.831111c0.056889 0.625778-0.199111 1.194667-0.085333 1.848889 0.199111 1.336889 0.881778 2.417778 1.251555 3.697778 0.455111 1.536 0.824889 3.015111 1.536 4.494222a27.363556 27.363556 0 0 0 3.84 5.632c0.654222 0.768 0.938667 1.735111 1.678223 2.446222l229.888 224.085334-54.300445 316.444444c-0.199111 1.194667 0.142222 2.275556 0.085334 3.470222a27.534222 27.534222 0 0 0 0.170666 5.717334 26.510222 26.510222 0 0 0 1.649778 5.546666c0.398222 1.080889 0.398222 2.247111 0.967111 3.299556 0.398222 0.711111 0.967111 1.251556 1.393778 1.934222a27.591111 27.591111 0 0 0 7.509333 7.879111c0.455111 0.369778 0.824889 0.768 1.308445 1.080889 2.844444 1.763556 5.973333 2.901333 9.244444 3.555556 0.341333 0.085333 0.597333 0.312889 0.938667 0.369778 1.621333 0.284444 3.242667 0.426667 4.835555 0.426666a27.534222 27.534222 0 0 0 10.951111-2.417778c0.739556-0.312889 1.536-0.483556 2.275556-0.853333L512 845.312l284.188444 149.418667c0.739556 0.398222 1.536 0.568889 2.275556 0.853333 0.768 0.341333 1.507556 0.597333 2.304 0.881778 2.872889 0.910222 5.745778 1.536 8.647111 1.536a28.017778 28.017778 0 0 0 4.835556-0.426667c0.341333-0.056889 0.597333-0.284444 0.938666-0.369778a27.448889 27.448889 0 0 0 9.187556-3.555555c0.540444-0.312889 0.910222-0.739556 1.393778-1.080889a28.672 28.672 0 0 0 7.480889-7.879111c0.426667-0.654222 0.995556-1.194667 1.365333-1.877334 0.568889-1.052444 0.568889-2.161778 0.938667-3.242666a26.766222 26.766222 0 0 0 1.649777-5.575111 27.022222 27.022222 0 0 0 0.199111-5.859556c-0.085333-1.137778 0.284444-2.190222 0.085334-3.356444l-54.300445-316.444445 229.973334-224.085333c0.768-0.739556 1.080889-1.735111 1.735111-2.531556a27.107556 27.107556 0 0 0 3.783111-5.518222c0.654222-1.564444 1.052444-3.100444 1.479111-4.664889zM732.728889 618.012444c-0.597333 0.597333-0.853333 1.422222-1.422222 2.048a26.368 26.368 0 0 0-3.242667 4.807112c-0.881778 1.592889-1.649778 3.128889-2.190222 4.835555s-0.824889 3.356444-1.052445 5.148445a26.88 26.88 0 0 0-0.170666 5.859555c0.056889 0.824889-0.227556 1.621333-0.085334 2.474667l47.075556 274.375111-246.414222-129.564445c-0.768-0.426667-1.621333-0.369778-2.389334-0.682666a26.766222 26.766222 0 0 0-5.575111-1.649778c-1.792-0.341333-3.498667-0.597333-5.262222-0.597333s-3.498667 0.256-5.290667 0.597333a27.221333 27.221333 0 0 0-5.518222 1.621333c-0.796444 0.341333-1.649778 0.312889-2.446222 0.711111l-246.414222 129.564445 47.047111-274.375111c0.142222-0.853333-0.142222-1.678222-0.056889-2.531556a29.866667 29.866667 0 0 0-1.251556-10.951111 27.392 27.392 0 0 0-2.190222-4.835555 25.884444 25.884444 0 0 0-3.271111-4.778667c-0.568889-0.654222-0.796444-1.479111-1.422222-2.076445L91.875556 423.708444l275.484444-40.049777c0.455111-0.056889 0.796444-0.369778 1.251556-0.455111a27.875556 27.875556 0 0 0 8.988444-3.214223l0.426667-0.170666a28.728889 28.728889 0 0 0 7.139555-6.513778c0.597333-0.739556 1.080889-1.536 1.621334-2.360889 0.625778-0.967111 1.422222-1.792 1.962666-2.872889L512 118.442667l123.192889 249.628444c0.540444 1.052444 1.308444 1.848889 1.905778 2.816 0.568889 0.824889 1.024 1.649778 1.678222 2.417778 2.076444 2.56 4.408889 4.835556 7.139555 6.485333 0.113778 0.085333 0.256 0.085333 0.369778 0.170667 2.816 1.649778 5.888 2.616889 9.073778 3.242667 0.455111 0.085333 0.768 0.369778 1.251556 0.455111l275.541333 40.049777-199.424 194.304z" fill="currentColor" p-id="8374"></path></svg>