<?xml version="1.0" standalone="no"?><!DOCTYPE svg PUBLIC "-//W3C//DTD SVG 1.1//EN" "http://www.w3.org/Graphics/SVG/1.1/DTD/svg11.dtd"><svg t="1735202719959" class="icon" viewBox="0 0 1024 1024" version="1.1" xmlns="http://www.w3.org/2000/svg" p-id="7114" xmlns:xlink="http://www.w3.org/1999/xlink" width="200" height="200"><path d="M652 684.8H370.9c-26.2 0-51.3 4.9-74.8 13.7-73.2 27.9-121.3 93.7-121.3 165.8v28.9h673.3v-28.9c0-59.7-32.6-115.9-87.7-149.2-10.2-6.6-21.4-12.2-33.7-16.6-11.8-4.4-23.8-7.8-36.3-10.3-12.8-2.1-25.6-3.4-38.4-3.4z m23.2-67.9c9.9 1 19.8 2.4 29.7 3.9 17.1 2.9 34.2 7.8 50.8 14.2 100.4 38.1 167.7 130 167.7 229.3v63.4c0 18.8-16.8 34.5-37.4 34.5H137c-20.8 0-37.7-15.7-37.7-34.5V864.4c0-99.8 66.5-190.7 167.8-229.4 25.4-9.3 52.6-15.6 80.4-18.1-97.8-52.3-159.2-150.6-159.2-254.8 0-162.8 147-295.9 323.3-295.9 177.6 0 323.2 134.5 323.2 295.9-0.1 104.1-61 201.9-159.6 254.8zM511.5 135.1c-99.4 0-190.8 55.8-229.2 139.9-12.3 27.4-18.7 56.7-18.7 87.1 0 90.7 59.8 174.1 151.2 209.3 61.4 24 131.4 23.5 192.9 0 91.9-35.7 151.8-118.6 151.8-209.3-0.1-123.8-110.7-227-248-227z" fill="currentColor" p-id="7115"></path></svg>